# xmcd
#
# Track frame offsets:
#	150
#	15458
#	27414
#	41252
#	56641
#	72531
#	88831
#	104870
#	121498
#	138427
#	154082
#	170575
#	184483
#	195921
#	212802
#	225380
#
# Disc length: 3179 seconds
#
# Revision: 0
# Processed by: cddbd v1.4PL0 Copyright (c) Steve Scherf et al.
# Submitted via: EasyCDDAExtractor 4.6.0.1
#
DISCID=e40c6910
DTITLE=Helmut Lotti - Latino Love Songs
DYEAR=1900
DGENRE=
TTITLE0=Quizas, Quizas, Quizas
TTITLE1=Quien Sera
TTITLE2=Somos Novios
TTITLE3=Volver
TTITLE4=Cucurrucucu Paloma
TTITLE5=Maria Elena
TTITLE6=Ave Maria No Morro
TTITLE7=Puerto Mont
TTITLE8=Mi Corazon
TTITLE9=Quiereme Mucho
TTITLE10=Las Mananitas
TTITLE11=Amor
TTITLE12=Alla Viene Un Corazon
TTITLE13=Margarita
TTITLE14=El Palomo
TTITLE15=Hay Fiesta En La Hacienda
EXTD=
EXTT0=
EXTT1=
EXTT2=
EXTT3=
EXTT4=
EXTT5=
EXTT6=
EXTT7=
EXTT8=
EXTT9=
EXTT10=
EXTT11=
EXTT12=
EXTT13=
EXTT14=
EXTT15=
PLAYORDER=
